<svg width="682" height="165" viewBox="0 0 682 165" fill="none" xmlns="http://www.w3.org/2000/svg">
<path d="M143 86C143 115.271 116.585 139 84 139C51.4152 139 25 115.271 25 86C25 56.7289 51.4152 33 84 33C116.585 33 143 56.7289 143 86Z" fill="#445DD3"/>
<path d="M182.489 82.5649C180.395 82.5649 178.738 83.7913 177.521 86.2441C176.321 88.6969 175.722 92.1076 175.722 96.4761C175.722 105.571 178.094 110.119 182.838 110.119C184.915 110.119 187.09 109.456 189.364 108.131V114.63C187.449 115.902 184.996 116.537 182.006 116.537C177.584 116.537 174.182 114.783 171.801 111.273C169.438 107.746 168.256 102.796 168.256 96.4224C168.256 90.0487 169.473 85.0804 171.908 81.5176C174.361 77.9548 177.763 76.1733 182.113 76.1733C183.546 76.1733 184.915 76.3703 186.222 76.7642C187.547 77.158 188.961 77.8473 190.465 78.832L188.048 84.7671C187.243 84.2121 186.383 83.7108 185.47 83.2632C184.557 82.7977 183.563 82.5649 182.489 82.5649ZM216.649 100.988C216.649 105.893 215.611 109.716 213.534 112.455C211.457 115.176 208.611 116.537 204.994 116.537C202.702 116.537 200.679 115.91 198.925 114.657C197.17 113.404 195.819 111.605 194.87 109.259C193.921 106.896 193.446 104.139 193.446 100.988C193.446 96.1359 194.476 92.3493 196.535 89.6279C198.594 86.8887 201.449 85.519 205.102 85.519C208.629 85.519 211.431 86.9155 213.507 89.7085C215.602 92.4836 216.649 96.2433 216.649 100.988ZM200.751 100.988C200.751 104.103 201.091 106.457 201.771 108.051C202.452 109.644 203.544 110.441 205.048 110.441C207.912 110.441 209.345 107.29 209.345 100.988C209.345 97.8547 208.996 95.5182 208.297 93.9785C207.617 92.4209 206.534 91.6421 205.048 91.6421C203.544 91.6421 202.452 92.4209 201.771 93.9785C201.091 95.5182 200.751 97.8547 200.751 100.988ZM229.54 116.537C226.783 116.537 224.608 115.176 223.014 112.455C221.421 109.734 220.624 105.947 220.624 101.095C220.624 96.2254 221.403 92.4119 222.96 89.6548C224.518 86.8976 226.667 85.519 229.406 85.519C230.766 85.519 231.939 85.8592 232.924 86.5396C233.926 87.202 234.848 88.3299 235.69 89.9233H236.12C235.905 87.202 235.797 85.2952 235.797 84.2031V74.2129H242.941V116H237.624L236.415 112.106H236.173C234.652 115.06 232.44 116.537 229.54 116.537ZM231.85 110.495C233.174 110.495 234.141 109.895 234.75 108.695C235.359 107.478 235.69 105.276 235.744 102.089V101.149C235.744 97.6756 235.43 95.2318 234.804 93.8174C234.195 92.403 233.183 91.6958 231.769 91.6958C230.444 91.6958 229.477 92.5104 228.869 94.1396C228.278 95.751 227.982 98.1053 227.982 101.203C227.982 104.3 228.287 106.627 228.896 108.185C229.504 109.725 230.489 110.495 231.85 110.495ZM259.994 116.537C256.252 116.537 253.298 115.212 251.132 112.562C248.983 109.895 247.909 106.126 247.909 101.256C247.909 96.3149 248.885 92.4567 250.836 89.6816C252.788 86.9066 255.509 85.519 259 85.519C262.259 85.519 264.828 86.7096 266.708 89.0908C268.588 91.4541 269.528 94.7752 269.528 99.0542V102.868H255.16C255.214 105.535 255.76 107.523 256.798 108.83C257.837 110.119 259.269 110.763 261.095 110.763C263.423 110.763 265.804 110.038 268.239 108.588V114.469C265.947 115.848 263.199 116.537 259.994 116.537ZM258.947 91.0244C257.926 91.0244 257.085 91.5705 256.422 92.6626C255.76 93.7368 255.375 95.4108 255.268 97.6846H262.519C262.483 95.5003 262.152 93.8442 261.525 92.7163C260.898 91.5884 260.039 91.0244 258.947 91.0244ZM287.709 82.5649C285.614 82.5649 283.958 83.7913 282.741 86.2441C281.541 88.6969 280.941 92.1076 280.941 96.4761C280.941 105.571 283.314 110.119 288.058 110.119C290.135 110.119 292.31 109.456 294.584 108.131V114.63C292.668 115.902 290.215 116.537 287.226 116.537C282.803 116.537 279.402 114.783 277.021 111.273C274.657 107.746 273.476 102.796 273.476 96.4224C273.476 90.0487 274.693 85.0804 277.128 81.5176C279.581 77.9548 282.982 76.1733 287.333 76.1733C288.765 76.1733 290.135 76.3703 291.442 76.7642C292.767 77.158 294.181 77.8473 295.685 78.832L293.268 84.7671C292.462 84.2121 291.603 83.7108 290.69 83.2632C289.777 82.7977 288.783 82.5649 287.709 82.5649ZM306.857 116H299.713V74.2129H306.857V116ZM335.028 100.988C335.028 105.893 333.99 109.716 331.913 112.455C329.836 115.176 326.99 116.537 323.373 116.537C321.081 116.537 319.058 115.91 317.304 114.657C315.549 113.404 314.197 111.605 313.249 109.259C312.3 106.896 311.825 104.139 311.825 100.988C311.825 96.1359 312.855 92.3493 314.914 89.6279C316.972 86.8887 319.828 85.519 323.48 85.519C327.007 85.519 329.809 86.9155 331.886 89.7085C333.981 92.4836 335.028 96.2433 335.028 100.988ZM319.13 100.988C319.13 104.103 319.47 106.457 320.15 108.051C320.831 109.644 321.923 110.441 323.427 110.441C326.291 110.441 327.724 107.29 327.724 100.988C327.724 97.8547 327.375 95.5182 326.676 93.9785C325.996 92.4209 324.913 91.6421 323.427 91.6421C321.923 91.6421 320.831 92.4209 320.15 93.9785C319.47 95.5182 319.13 97.8547 319.13 100.988ZM356.217 116L355.331 112.16H354.955C354.293 113.52 353.344 114.595 352.108 115.382C350.891 116.152 349.494 116.537 347.919 116.537C345.233 116.537 343.201 115.624 341.823 113.798C340.444 111.972 339.755 109.241 339.755 105.607V86.083H346.979V103.888C346.979 106.072 347.239 107.72 347.758 108.83C348.277 109.94 349.118 110.495 350.282 110.495C351.822 110.495 352.941 109.725 353.639 108.185C354.355 106.645 354.713 104.058 354.713 100.424V86.083H361.938V116H356.217ZM375.795 116.537C373.038 116.537 370.862 115.176 369.269 112.455C367.676 109.734 366.879 105.947 366.879 101.095C366.879 96.2254 367.658 92.4119 369.215 89.6548C370.773 86.8976 372.921 85.519 375.661 85.519C377.021 85.519 378.194 85.8592 379.179 86.5396C380.181 87.202 381.103 88.3299 381.945 89.9233H382.375C382.16 87.202 382.052 85.2952 382.052 84.2031V74.2129H389.196V116H383.878L382.67 112.106H382.428C380.906 115.06 378.695 116.537 375.795 116.537ZM378.104 110.495C379.429 110.495 380.396 109.895 381.005 108.695C381.614 107.478 381.945 105.276 381.999 102.089V101.149C381.999 97.6756 381.685 95.2318 381.059 93.8174C380.45 92.403 379.438 91.6958 378.024 91.6958C376.699 91.6958 375.732 92.5104 375.124 94.1396C374.533 95.751 374.237 98.1053 374.237 101.203C374.237 104.3 374.542 106.627 375.15 108.185C375.759 109.725 376.744 110.495 378.104 110.495ZM395.158 112.321C395.158 110.924 395.525 109.841 396.259 109.071C397.011 108.301 398.121 107.917 399.589 107.917C401.057 107.917 402.167 108.301 402.919 109.071C403.671 109.823 404.047 110.906 404.047 112.321C404.047 113.717 403.653 114.8 402.865 115.57C402.095 116.34 401.003 116.725 399.589 116.725C398.139 116.725 397.038 116.34 396.286 115.57C395.534 114.783 395.158 113.699 395.158 112.321ZM419.972 116.537C416.409 116.537 413.697 115.239 411.835 112.643C409.973 110.047 409.042 106.234 409.042 101.203C409.042 95.939 409.919 92.0091 411.674 89.4131C413.446 86.8171 416.177 85.519 419.865 85.519C420.975 85.519 422.139 85.6802 423.356 86.0024C424.573 86.3247 425.666 86.7902 426.632 87.3989L424.591 92.958C423.105 92.0807 421.789 91.6421 420.644 91.6421C419.122 91.6421 418.021 92.4388 417.34 94.0322C416.678 95.6077 416.347 97.98 416.347 101.149C416.347 104.246 416.678 106.565 417.34 108.104C418.003 109.626 419.086 110.387 420.59 110.387C422.38 110.387 424.251 109.761 426.203 108.507V114.792C424.323 115.955 422.246 116.537 419.972 116.537ZM452.655 100.988C452.655 105.893 451.617 109.716 449.54 112.455C447.463 115.176 444.617 116.537 441 116.537C438.708 116.537 436.685 115.91 434.931 114.657C433.176 113.404 431.824 111.605 430.875 109.259C429.927 106.896 429.452 104.139 429.452 100.988C429.452 96.1359 430.482 92.3493 432.541 89.6279C434.599 86.8887 437.455 85.519 441.107 85.519C444.634 85.519 447.436 86.9155 449.513 89.7085C451.608 92.4836 452.655 96.2433 452.655 100.988ZM436.757 100.988C436.757 104.103 437.097 106.457 437.777 108.051C438.458 109.644 439.55 110.441 441.054 110.441C443.918 110.441 445.351 107.29 445.351 100.988C445.351 97.8547 445.001 95.5182 444.303 93.9785C443.623 92.4209 442.54 91.6421 441.054 91.6421C439.55 91.6421 438.458 92.4209 437.777 93.9785C437.097 95.5182 436.757 97.8547 436.757 100.988ZM487.379 116V98.168C487.379 93.7816 486.296 91.5884 484.13 91.5884C482.554 91.5884 481.426 92.3761 480.746 93.9517C480.066 95.5093 479.726 98.0158 479.726 101.471V116H472.528V98.168C472.528 93.7816 471.427 91.5884 469.225 91.5884C467.685 91.5884 466.566 92.3672 465.868 93.9248C465.17 95.4824 464.821 98.0516 464.821 101.632V116H457.677V86.083H463.344L464.203 89.9233H464.66C465.376 88.4015 466.352 87.2915 467.587 86.5933C468.84 85.8771 470.174 85.519 471.588 85.519C475.241 85.519 477.676 87.2467 478.893 90.7021H479.162C480.683 87.2467 483.127 85.519 486.493 85.519C489.143 85.519 491.148 86.45 492.509 88.312C493.887 90.174 494.577 92.8953 494.577 96.4761V116H487.379Z" fill="white"/>
<path d="M116.249 103.858C120.239 106.592 121.144 112.193 117.459 115.326C113.122 119.013 108.027 121.869 102.455 123.697C93.9707 126.48 84.7865 126.747 76.1365 124.463C67.4864 122.179 59.7848 117.452 54.0666 110.918C48.3484 104.384 44.8875 96.3557 44.149 87.912C43.4104 79.4683 45.4296 71.0137 49.9353 63.6842C54.4409 56.3546 61.2171 50.5014 69.3533 46.9109C77.4896 43.3204 86.596 42.1647 95.4491 43.5991C101.312 44.549 106.878 46.6048 111.828 49.6121C115.931 52.1048 115.954 57.7338 112.486 61.0539C109.294 64.1105 104.301 64.0072 100.33 62.0659C97.8963 60.8758 95.2691 60.0383 92.5358 59.5954C87.1451 58.722 81.6002 59.4257 76.646 61.612C71.6919 63.7983 67.5659 67.3623 64.8224 71.8252C62.0789 76.2882 60.8494 81.4362 61.2991 86.5776C61.7488 91.7189 63.8561 96.6073 67.3379 100.586C70.8198 104.564 75.5093 107.443 80.7763 108.834C86.0433 110.224 91.6356 110.062 96.8016 108.367C99.3655 107.526 101.763 106.327 103.922 104.823C107.59 102.267 112.561 101.33 116.249 103.858Z" fill="white"/>
</svg>
