<svg width="682" height="165" viewBox="0 0 682 165" fill="none" xmlns="http://www.w3.org/2000/svg">
<path d="M143 86C143 115.271 116.585 139 84 139C51.4152 139 25 115.271 25 86C25 56.7289 51.4152 33 84 33C116.585 33 143 56.7289 143 86Z" fill="#445DD3"/>
<path d="M204.184 84.4961H196.879C196.671 83.2982 196.286 82.237 195.727 81.3125C195.167 80.375 194.47 79.5807 193.637 78.9297C192.803 78.2786 191.853 77.7904 190.785 77.4648C189.73 77.1263 188.591 76.957 187.367 76.957C185.193 76.957 183.266 77.5039 181.586 78.5977C179.906 79.6784 178.591 81.2669 177.641 83.3633C176.69 85.4466 176.215 87.9922 176.215 91C176.215 94.0599 176.69 96.638 177.641 98.7344C178.604 100.818 179.919 102.393 181.586 103.461C183.266 104.516 185.186 105.043 187.348 105.043C188.546 105.043 189.665 104.887 190.707 104.574C191.762 104.249 192.706 103.773 193.539 103.148C194.385 102.523 195.095 101.755 195.668 100.844C196.254 99.9323 196.658 98.8906 196.879 97.7187L204.184 97.7578C203.91 99.6589 203.318 101.443 202.406 103.109C201.508 104.776 200.329 106.247 198.871 107.523C197.413 108.786 195.707 109.776 193.754 110.492C191.801 111.195 189.633 111.547 187.25 111.547C183.734 111.547 180.596 110.733 177.836 109.105C175.076 107.478 172.901 105.128 171.313 102.055C169.724 98.9818 168.93 95.2969 168.93 91C168.93 86.6901 169.73 83.0052 171.332 79.9453C172.934 76.8724 175.115 74.5221 177.875 72.8945C180.635 71.2669 183.76 70.4531 187.25 70.4531C189.477 70.4531 191.547 70.7656 193.461 71.3906C195.375 72.0156 197.081 72.9336 198.578 74.1445C200.076 75.3424 201.306 76.8138 202.27 78.5586C203.246 80.2904 203.884 82.2695 204.184 84.4961ZM223.593 111.586C220.663 111.586 218.124 110.941 215.976 109.652C213.827 108.363 212.16 106.56 210.976 104.242C209.804 101.924 209.218 99.2161 209.218 96.1172C209.218 93.0182 209.804 90.3034 210.976 87.9727C212.16 85.6419 213.827 83.832 215.976 82.543C218.124 81.2539 220.663 80.6094 223.593 80.6094C226.522 80.6094 229.062 81.2539 231.21 82.543C233.358 83.832 235.019 85.6419 236.19 87.9727C237.375 90.3034 237.968 93.0182 237.968 96.1172C237.968 99.2161 237.375 101.924 236.19 104.242C235.019 106.56 233.358 108.363 231.21 109.652C229.062 110.941 226.522 111.586 223.593 111.586ZM223.632 105.922C225.22 105.922 226.549 105.486 227.616 104.613C228.684 103.728 229.478 102.543 229.999 101.059C230.533 99.5742 230.8 97.9206 230.8 96.0977C230.8 94.2617 230.533 92.6016 229.999 91.1172C229.478 89.6198 228.684 88.4284 227.616 87.543C226.549 86.6576 225.22 86.2148 223.632 86.2148C222.004 86.2148 220.65 86.6576 219.569 87.543C218.502 88.4284 217.701 89.6198 217.167 91.1172C216.646 92.6016 216.386 94.2617 216.386 96.0977C216.386 97.9206 216.646 99.5742 217.167 101.059C217.701 102.543 218.502 103.728 219.569 104.613C220.65 105.486 222.004 105.922 223.632 105.922ZM255.102 111.527C252.745 111.527 250.635 110.922 248.773 109.711C246.911 108.5 245.44 106.742 244.359 104.437C243.279 102.133 242.738 99.3333 242.738 96.0391C242.738 92.7057 243.285 89.8932 244.379 87.6016C245.486 85.2969 246.977 83.5586 248.852 82.3867C250.727 81.2018 252.816 80.6094 255.121 80.6094C256.879 80.6094 258.324 80.9089 259.457 81.5078C260.59 82.0937 261.488 82.8034 262.152 83.6367C262.816 84.457 263.331 85.2318 263.695 85.9609H263.988V71H271.078V111H264.125V106.273H263.695C263.331 107.003 262.803 107.777 262.113 108.598C261.423 109.405 260.512 110.095 259.379 110.668C258.246 111.241 256.82 111.527 255.102 111.527ZM257.074 105.727C258.572 105.727 259.848 105.323 260.902 104.516C261.957 103.695 262.758 102.556 263.305 101.098C263.852 99.6393 264.125 97.9401 264.125 96C264.125 94.0599 263.852 92.3737 263.305 90.9414C262.771 89.5091 261.977 88.3958 260.922 87.6016C259.88 86.8073 258.598 86.4102 257.074 86.4102C255.499 86.4102 254.184 86.8203 253.129 87.6406C252.074 88.4609 251.28 89.5937 250.746 91.0391C250.212 92.4844 249.945 94.138 249.945 96C249.945 97.875 250.212 99.5482 250.746 101.02C251.293 102.478 252.094 103.63 253.148 104.477C254.216 105.31 255.525 105.727 257.074 105.727ZM291.894 111.586C288.886 111.586 286.288 110.961 284.101 109.711C281.926 108.448 280.253 106.664 279.081 104.359C277.909 102.042 277.323 99.3138 277.323 96.1758C277.323 93.0898 277.909 90.3815 279.081 88.0508C280.266 85.707 281.92 83.8841 284.042 82.582C286.164 81.2669 288.658 80.6094 291.522 80.6094C293.371 80.6094 295.116 80.9089 296.757 81.5078C298.41 82.0937 299.869 83.0052 301.132 84.2422C302.408 85.4792 303.41 87.0547 304.14 88.9687C304.869 90.8698 305.233 93.1354 305.233 95.7656V97.9336H280.644V93.168H298.456C298.443 91.8138 298.15 90.6094 297.577 89.5547C297.004 88.487 296.203 87.6471 295.175 87.0352C294.159 86.4232 292.974 86.1172 291.62 86.1172C290.175 86.1172 288.905 86.4687 287.812 87.1719C286.718 87.862 285.865 88.7734 285.253 89.9062C284.654 91.026 284.348 92.2565 284.335 93.5977V97.7578C284.335 99.5026 284.654 101 285.292 102.25C285.93 103.487 286.822 104.437 287.968 105.102C289.114 105.753 290.455 106.078 291.991 106.078C293.02 106.078 293.951 105.935 294.784 105.648C295.618 105.349 296.34 104.913 296.952 104.34C297.564 103.767 298.026 103.057 298.339 102.211L304.94 102.953C304.524 104.698 303.729 106.221 302.558 107.523C301.399 108.812 299.914 109.815 298.104 110.531C296.295 111.234 294.224 111.586 291.894 111.586ZM345.766 84.4961H338.461C338.253 83.2982 337.868 82.237 337.309 81.3125C336.749 80.375 336.052 79.5807 335.219 78.9297C334.385 78.2786 333.435 77.7904 332.367 77.4648C331.313 77.1263 330.173 76.957 328.949 76.957C326.775 76.957 324.848 77.5039 323.168 78.5977C321.488 79.6784 320.173 81.2669 319.223 83.3633C318.272 85.4466 317.797 87.9922 317.797 91C317.797 94.0599 318.272 96.638 319.223 98.7344C320.186 100.818 321.501 102.393 323.168 103.461C324.848 104.516 326.768 105.043 328.93 105.043C330.128 105.043 331.247 104.887 332.289 104.574C333.344 104.249 334.288 103.773 335.121 103.148C335.967 102.523 336.677 101.755 337.25 100.844C337.836 99.9323 338.24 98.8906 338.461 97.7187L345.766 97.7578C345.492 99.6589 344.9 101.443 343.988 103.109C343.09 104.776 341.911 106.247 340.453 107.523C338.995 108.786 337.289 109.776 335.336 110.492C333.383 111.195 331.215 111.547 328.832 111.547C325.316 111.547 322.178 110.733 319.418 109.105C316.658 107.478 314.483 105.128 312.895 102.055C311.306 98.9818 310.512 95.2969 310.512 91C310.512 86.6901 311.313 83.0052 312.914 79.9453C314.516 76.8724 316.697 74.5221 319.457 72.8945C322.217 71.2669 325.342 70.4531 328.832 70.4531C331.059 70.4531 333.129 70.7656 335.043 71.3906C336.957 72.0156 338.663 72.9336 340.16 74.1445C341.658 75.3424 342.888 76.8138 343.852 78.5586C344.828 80.2904 345.466 82.2695 345.766 84.4961ZM359.159 71V111H352.089V71H359.159ZM379.516 111.586C376.586 111.586 374.047 110.941 371.898 109.652C369.75 108.363 368.083 106.56 366.898 104.242C365.727 101.924 365.141 99.2161 365.141 96.1172C365.141 93.0182 365.727 90.3034 366.898 87.9727C368.083 85.6419 369.75 83.832 371.898 82.543C374.047 81.2539 376.586 80.6094 379.516 80.6094C382.445 80.6094 384.984 81.2539 387.133 82.543C389.281 83.832 390.941 85.6419 392.113 87.9727C393.298 90.3034 393.891 93.0182 393.891 96.1172C393.891 99.2161 393.298 101.924 392.113 104.242C390.941 106.56 389.281 108.363 387.133 109.652C384.984 110.941 382.445 111.586 379.516 111.586ZM379.555 105.922C381.143 105.922 382.471 105.486 383.539 104.613C384.607 103.728 385.401 102.543 385.922 101.059C386.456 99.5742 386.723 97.9206 386.723 96.0977C386.723 94.2617 386.456 92.6016 385.922 91.1172C385.401 89.6198 384.607 88.4284 383.539 87.543C382.471 86.6576 381.143 86.2148 379.555 86.2148C377.927 86.2148 376.573 86.6576 375.492 87.543C374.424 88.4284 373.624 89.6198 373.09 91.1172C372.569 92.6016 372.309 94.2617 372.309 96.0977C372.309 97.9206 372.569 99.5742 373.09 101.059C373.624 102.543 374.424 103.728 375.492 104.613C376.573 105.486 377.927 105.922 379.555 105.922ZM419.013 98.3828V81H426.083V111H419.228V105.668H418.915C418.238 107.348 417.125 108.721 415.575 109.789C414.039 110.857 412.144 111.391 409.892 111.391C407.925 111.391 406.187 110.954 404.677 110.082C403.179 109.197 402.007 107.914 401.161 106.234C400.315 104.542 399.892 102.497 399.892 100.102V81H406.962V99.0078C406.962 100.909 407.483 102.419 408.524 103.539C409.566 104.659 410.933 105.219 412.626 105.219C413.668 105.219 414.677 104.965 415.653 104.457C416.63 103.949 417.431 103.194 418.056 102.191C418.694 101.176 419.013 99.9062 419.013 98.3828ZM444.486 111.527C442.13 111.527 440.02 110.922 438.158 109.711C436.296 108.5 434.825 106.742 433.744 104.437C432.663 102.133 432.123 99.3333 432.123 96.0391C432.123 92.7057 432.67 89.8932 433.764 87.6016C434.87 85.2969 436.361 83.5586 438.236 82.3867C440.111 81.2018 442.201 80.6094 444.506 80.6094C446.264 80.6094 447.709 80.9089 448.842 81.5078C449.975 82.0937 450.873 82.8034 451.537 83.6367C452.201 84.457 452.715 85.2318 453.08 85.9609H453.373V71H460.463V111H453.51V106.273H453.08C452.715 107.003 452.188 107.777 451.498 108.598C450.808 109.405 449.896 110.095 448.764 110.668C447.631 111.241 446.205 111.527 444.486 111.527ZM446.459 105.727C447.956 105.727 449.232 105.323 450.287 104.516C451.342 103.695 452.143 102.556 452.689 101.098C453.236 99.6393 453.51 97.9401 453.51 96C453.51 94.0599 453.236 92.3737 452.689 90.9414C452.156 89.5091 451.361 88.3958 450.307 87.6016C449.265 86.8073 447.982 86.4102 446.459 86.4102C444.883 86.4102 443.568 86.8203 442.514 87.6406C441.459 88.4609 440.665 89.5937 440.131 91.0391C439.597 92.4844 439.33 94.138 439.33 96C439.33 97.875 439.597 99.5482 440.131 101.02C440.678 102.478 441.479 103.63 442.533 104.477C443.601 105.31 444.91 105.727 446.459 105.727ZM472.353 111.43C471.168 111.43 470.152 111.013 469.306 110.18C468.459 109.346 468.043 108.331 468.056 107.133C468.043 105.961 468.459 104.958 469.306 104.125C470.152 103.292 471.168 102.875 472.353 102.875C473.498 102.875 474.494 103.292 475.341 104.125C476.2 104.958 476.636 105.961 476.649 107.133C476.636 107.927 476.428 108.65 476.024 109.301C475.634 109.952 475.113 110.473 474.462 110.863C473.824 111.241 473.121 111.43 472.353 111.43ZM497.035 111.586C494.04 111.586 491.469 110.928 489.32 109.613C487.185 108.298 485.538 106.482 484.379 104.164C483.233 101.833 482.66 99.151 482.66 96.1172C482.66 93.0703 483.246 90.3815 484.418 88.0508C485.59 85.707 487.243 83.8841 489.379 82.582C491.527 81.2669 494.066 80.6094 496.996 80.6094C499.431 80.6094 501.586 81.0586 503.461 81.957C505.349 82.8424 506.853 84.099 507.973 85.7266C509.092 87.3411 509.73 89.2292 509.887 91.3906H503.129C502.855 89.9453 502.204 88.7409 501.176 87.7773C500.16 86.8008 498.799 86.3125 497.094 86.3125C495.648 86.3125 494.379 86.7031 493.285 87.4844C492.191 88.2526 491.339 89.3594 490.727 90.8047C490.128 92.25 489.828 93.9818 489.828 96C489.828 98.0443 490.128 99.8021 490.727 101.273C491.326 102.732 492.165 103.858 493.246 104.652C494.34 105.434 495.622 105.824 497.094 105.824C498.135 105.824 499.066 105.629 499.887 105.238C500.72 104.835 501.417 104.255 501.977 103.5C502.536 102.745 502.921 101.827 503.129 100.746H509.887C509.717 102.868 509.092 104.75 508.012 106.391C506.931 108.018 505.46 109.294 503.598 110.219C501.736 111.13 499.548 111.586 497.035 111.586ZM528.778 111.586C525.849 111.586 523.31 110.941 521.161 109.652C519.013 108.363 517.346 106.56 516.161 104.242C514.989 101.924 514.403 99.2161 514.403 96.1172C514.403 93.0182 514.989 90.3034 516.161 87.9727C517.346 85.6419 519.013 83.832 521.161 82.543C523.31 81.2539 525.849 80.6094 528.778 80.6094C531.708 80.6094 534.247 81.2539 536.396 82.543C538.544 83.832 540.204 85.6419 541.376 87.9727C542.561 90.3034 543.153 93.0182 543.153 96.1172C543.153 99.2161 542.561 101.924 541.376 104.242C540.204 106.56 538.544 108.363 536.396 109.652C534.247 110.941 531.708 111.586 528.778 111.586ZM528.817 105.922C530.406 105.922 531.734 105.486 532.802 104.613C533.869 103.728 534.664 102.543 535.185 101.059C535.718 99.5742 535.985 97.9206 535.985 96.0977C535.985 94.2617 535.718 92.6016 535.185 91.1172C534.664 89.6198 533.869 88.4284 532.802 87.543C531.734 86.6576 530.406 86.2148 528.817 86.2148C527.19 86.2148 525.836 86.6576 524.755 87.543C523.687 88.4284 522.886 89.6198 522.353 91.1172C521.832 92.6016 521.571 94.2617 521.571 96.0977C521.571 97.9206 521.832 99.5742 522.353 101.059C522.886 102.543 523.687 103.728 524.755 104.613C525.836 105.486 527.19 105.922 528.817 105.922ZM549.154 111V81H555.912V86.0977H556.264C556.889 84.3789 557.924 83.0378 559.369 82.0742C560.814 81.0977 562.54 80.6094 564.545 80.6094C566.576 80.6094 568.288 81.1042 569.682 82.0937C571.088 83.0703 572.077 84.4049 572.65 86.0977H572.963C573.627 84.431 574.747 83.1029 576.322 82.1133C577.911 81.1107 579.792 80.6094 581.967 80.6094C584.727 80.6094 586.98 81.4818 588.725 83.2266C590.469 84.9714 591.342 87.5169 591.342 90.8633V111H584.252V91.957C584.252 90.0951 583.757 88.7344 582.768 87.875C581.778 87.0026 580.567 86.5664 579.135 86.5664C577.429 86.5664 576.094 87.1003 575.131 88.168C574.18 89.2227 573.705 90.5964 573.705 92.2891V111H566.771V91.6641C566.771 90.1146 566.303 88.8776 565.365 87.9531C564.441 87.0286 563.23 86.5664 561.732 86.5664C560.717 86.5664 559.792 86.8268 558.959 87.3477C558.126 87.8555 557.462 88.5781 556.967 89.5156C556.472 90.4401 556.225 91.5208 556.225 92.7578V111H549.154Z" fill="black"/>
<path d="M116.249 103.858C120.239 106.592 121.144 112.193 117.459 115.326C113.122 119.013 108.027 121.869 102.455 123.697C93.9707 126.48 84.7865 126.747 76.1365 124.463C67.4864 122.179 59.7848 117.452 54.0666 110.918C48.3484 104.384 44.8875 96.3557 44.149 87.912C43.4104 79.4683 45.4296 71.0137 49.9353 63.6842C54.4409 56.3546 61.2171 50.5014 69.3533 46.9109C77.4896 43.3204 86.596 42.1647 95.4491 43.5991C101.312 44.549 106.878 46.6048 111.828 49.6121C115.931 52.1048 115.954 57.7338 112.486 61.0539V61.0539C109.294 64.1105 104.301 64.0072 100.33 62.0659C97.8963 60.8758 95.2691 60.0383 92.5358 59.5954C87.1451 58.722 81.6002 59.4257 76.646 61.612C71.6919 63.7983 67.5659 67.3623 64.8224 71.8252C62.0789 76.2882 60.8494 81.4362 61.2991 86.5776C61.7488 91.7189 63.8561 96.6073 67.3379 100.586C70.8198 104.564 75.5093 107.443 80.7763 108.834C86.0433 110.224 91.6356 110.062 96.8016 108.367C99.3655 107.526 101.763 106.327 103.922 104.823C107.59 102.267 112.561 101.33 116.249 103.858V103.858Z" fill="white"/>
</svg>
